<?xml version="1.0" encoding="utf-8"?>
<!-- Generator: Adobe Illustrator 22.0.0, SVG Export Plug-In . SVG Version: 6.00 Build 0)  -->
<svg version="1.1" id="Layer_1" xmlns="http://www.w3.org/2000/svg" xmlns:xlink="http://www.w3.org/1999/xlink" x="0px" y="0px"
	 viewBox="0 0 51 52" style="enable-background:new 0 0 51 52;" xml:space="preserve">
<style type="text/css">
	.st0{fill:none;}
	.st1{fill:#FFFFFF;}
</style>
<g id="https:_material.io_resources_icons_icon_eco_style_outline" transform="translate(0.083 -0.414)">
	<g id="Bounding_Box" transform="translate(0 0)">
		<rect id="Rectangle_12" x="-0.1" y="0.4" class="st0" width="51" height="52"/>
	</g>
</g>
<g>
	<path class="st1" d="M7.7,40.7c0-7.3,0-14.7,0-22c0.4-0.7,1.1-1,1.9-1c2.2,0,4.3,0,6.5,0c0.5,0,1,0,1.3,0c0.1,0.9,0.2,1.7,0.3,2.6
		c-2.4,0-4.9,0-7.4,0c0,3.5,0,7,0,10.7c1.2-1.2,2.2-2.2,3.2-3.3c0.5-0.5,0.8-0.6,1.2,0c0.6,0.7,1.2,1.3,1.9,2
		c1.1-1.2,2.2-2.3,3.3-3.5c0.6,1.2,1.5,1.4,2.6,1.3c0.5,0,1,0,1.4,0c0.7-0.1,1.2,0.2,1.7,0.7c1.4,1.5,2.8,2.9,4.2,4.4
		c0.3-0.2,0.4-0.3,0.5-0.4c1.5-1.5,3.1-3.1,4.6-4.6c0.4-0.4,0.6-0.4,1,0c0.6,0.7,1.3,1.3,1.9,1.9c0.9,0.9,1.8,1.9,2.6,2.8
		c0.1,0,0.1-0.1,0.2-0.1c0-3.9,0-7.9,0-11.9c-2.5,0-5,0-7.4,0c0.1-0.9,0.1-1.7,0.2-2.5c2.5,0,5.1,0,7.8,0c0.9,0,1.5,0.2,2,1
		c0,7.3,0,14.7,0,22c-0.4,0.8-1,1-1.9,1c-10.6,0-21.3,0-31.9,0C8.7,41.7,8.1,41.4,7.7,40.7z"/>
	<path class="st1" d="M21.6,19.1c-0.9,0-1.7,0-2.5,0c0-0.1-0.1-0.1-0.1-0.2c2.1-2.6,4.3-5.2,6.5-8c2.2,2.7,4.3,5.3,6.5,7.9
		c0,0.1,0,0.1-0.1,0.2c-0.8,0-1.6,0-2.5,0c0,1.8,0,3.5,0,5.1c0,1.7,0,1.7-1.7,1.7c-1.8,0-3.5,0-5.3,0c-0.6,0-0.8-0.1-0.8-0.8
		C21.7,23.1,21.6,21.2,21.6,19.1z"/>
</g>
</svg>
