<?xml version="1.0" encoding="utf-8"?>
<!-- Generator: Adobe Illustrator 22.0.0, SVG Export Plug-In . SVG Version: 6.00 Build 0)  -->
<svg version="1.1" id="https:_material.io_resources_icons_icon_group_work_style_outline"
	 xmlns="http://www.w3.org/2000/svg" xmlns:xlink="http://www.w3.org/1999/xlink" x="0px" y="0px" viewBox="0 0 52.3 52.3"
	 style="enable-background:new 0 0 52.3 52.3;" xml:space="preserve">
<style type="text/css">
	.st0{fill:none;}
	.st1{fill:#FFFFFF;}
	.st2{fill:#E0C6B0;}
	.st3{font-family:'ArialMT';}
	.st4{font-size:4.2368px;}
	.st5{font-size:3.6148px;}
</style>
<g>
	<path id="Path_47" class="st0" d="M0,0h52.3v52.3H0V0z"/>
	<path id="Path_48" class="st1" d="M26.2,4.4c-12,0-21.8,9.7-21.8,21.8S14.1,48,26.2,48S48,38.3,48,26.2l0,0
		C47.9,14.1,38.2,4.4,26.2,4.4z"/>
</g>
<path class="st2" d="M20.1,33.4c0.1-0.3-0.3-0.8,0.4-0.8C20.5,33,20.7,33.4,20.1,33.4z"/>
<path d="M13.9,18.7"/>
<g>
	<polygon points="17.6,22.8 17.2,22.4 11,23.5 10.7,24.3 10.4,25.3 5.8,26.4 5.1,27.2 5.1,30.2 5.8,32.8 6.3,33.8 7.1,34.5 
		11.8,33.5 12.2,33.6 12.8,34.7 13.4,35.1 19.6,33.6 19.6,33 39.3,28.8 40.2,29.1 40.7,29.1 44.7,27.5 45.8,25.7 46.2,24 45.7,21.1 
		44.5,19.2 43.4,18.7 42.8,18.5 42,17.9 40.8,18 38.5,18.5 37.6,19 	"/>
	<path class="st1" d="M37.2,19.1c0.6,1.1,1.3,2.7,1.7,4.7s0.4,3.8,0.4,5.1c0.2,0.1,0.4,0.1,0.6,0.2c0.1-1.4,0-3.2-0.4-5.3
		s-1.1-3.7-1.7-5"/>
	<text transform="matrix(0.9802 -0.2071 0.2067 0.9784 20.3302 27.0543)" class="st1 st3 st4">SMART</text>
	<text transform="matrix(0.9802 -0.2071 0.2067 0.9784 20.7988 30.7372)" class="st1 st3 st5">OPHTHO</text>
</g>
</svg>
