<?xml version="1.0" encoding="utf-8"?>
<!-- Generator: Adobe Illustrator 22.0.0, SVG Export Plug-In . SVG Version: 6.00 Build 0)  -->
<svg version="1.1" id="https:_material.io_resources_icons_icon_mode_comment_style_outline"
	 xmlns="http://www.w3.org/2000/svg" xmlns:xlink="http://www.w3.org/1999/xlink" x="0px" y="0px" viewBox="0 0 52.3 52.3"
	 style="enable-background:new 0 0 52.3 52.3;" xml:space="preserve">
<style type="text/css">
	.st0{fill:none;}
	.st1{fill:#FFFFFF;}
</style>
<path id="Path_50" class="st0" d="M0,0h52.3v52.3H0V0z"/>
<g>
	<path class="st1" d="M10.3,42.9c9.4,0,18.8,0,28.3,0c0.1-0.8,0.2-1.6,0.3-2.8c1.2,1.2,0.6,2.3,0.7,3.5c-0.6,0-1.2,0.1-1.7,0.1
		c-8.9,0-17.7,0-26.6,0c-1.5,0-1.8-0.4-1.8-1.9c0-8.1,0-16.1-0.1-24.2c0-1.2,0.3-2.1,1.3-3c2.5-2.2,4.9-4.5,7.4-6.7
		c0.6-0.5,1.6-0.9,2.3-0.9C26.3,7,32.1,7.1,38,7c1.2,0,1.6,0.4,1.6,1.6c-0.1,4.1,0,8.3,0,12.4c0,0.5-0.2,1-0.2,1.4
		c-0.2,0-0.3,0-0.5,0c0-4.8,0-9.6,0-14.5c-6.5,0-12.8,0-19.3,0c0,1.4,0,2.8,0,4.3c0,3.4-0.9,4.3-4.3,4.3c-1.6,0-3.2,0-4.9,0
		C10.3,25.3,10.3,34.1,10.3,42.9z M18.7,8.5c-2.7,2.5-5.2,4.7-7.9,7.2c2.1,0,3.8,0.1,5.4,0c1.7-0.1,2.5-1,2.5-2.6
		C18.7,11.7,18.7,10.3,18.7,8.5z"/>
	<path class="st1" d="M38.9,33.2c2.3,2.4,4.6,4.6,6.8,6.9c0.7,0.8,0.6,1.9-0.3,2.7c-0.8,0.7-1.8,0.8-2.6,0.1
		c-2.3-2.2-4.5-4.5-6.8-6.8c-4.7,2.2-9.2,1.4-11.8-2.5c-2.5-3.6-2-8.5,1.1-11.6c3.1-2.9,8-3.2,11.4-0.6
		C40.3,24.2,41.1,28.9,38.9,33.2z M23.4,28.5c0,4.6,3.5,8.1,8,8.1c4.4,0,7.9-3.6,8-8c0-4.5-3.6-8.2-8.1-8.2
		C26.9,20.5,23.4,24.1,23.4,28.5z M45.4,41.3c-0.1-0.3-0.2-0.5-0.3-0.7c-2-2-4-4-6-6c-0.2-0.2-1.1,0-1.4,0.3
		c-0.3,0.3-0.4,1.2-0.1,1.4c1.9,2,3.8,3.9,5.8,5.8c0.3,0.3,1,0.2,1.4,0.1C45,42.1,45.2,41.6,45.4,41.3z"/>
	<path class="st1" d="M23,11.6c4.3,0,8.6,0,12.9,0c0,0.2,0,0.4,0,0.6c-4.3,0.1-8.6,0-12.9,0C23.1,12,23,11.8,23,11.6z"/>
	<path class="st1" d="M23.1,15.2c4.3,0,8.6,0,12.9,0c0,0.2,0,0.4,0,0.6c-4.3,0.1-8.6,0-12.9,0.1C23.1,15.7,23.1,15.4,23.1,15.2z"/>
	<path class="st1" d="M21,31.2c-3.1,0-5.8,0-8.7,0C13.2,30.3,19.5,30.3,21,31.2z"/>
	<ellipse class="st1" cx="16.5" cy="34.5" rx="5.8" ry="0.3"/>
	<path class="st1" d="M12.2,38.5c1-0.9,7.5-1,8.6,0C17.8,38.5,15.1,38.5,12.2,38.5z"/>
	<path class="st1" d="M12.4,23.4c2.7,0,5.4,0,8.2,0C19.9,24.2,14,24.4,12.4,23.4z"/>
	<path class="st1" d="M12.2,27.1c2.9,0,5.6,0,8.3,0C20,28,13.4,28.1,12.2,27.1z"/>
	<path class="st1" d="M20.6,20.3c-2.7,0-5.5,0-8.3,0C13,19.6,18.9,19.4,20.6,20.3z"/>
	<path class="st1" d="M36.1,24.2c-2,3-4.1,6-6.4,9.4c-1.2-2.1-2.2-4-3.2-5.8c0.2-0.1,0.4-0.2,0.6-0.4c0.9,1.5,1.7,2.9,2.7,4.5
		c2.1-2.7,3.7-5.6,5.7-8.1C35.8,23.9,35.9,24.1,36.1,24.2z"/>
</g>
</svg>
